<svg width="133" height="40" viewBox="0 0 133 40" fill="none" xmlns="http://www.w3.org/2000/svg">
<rect width="133" height="40" rx="20" fill="url(#paint0_linear_41_1319)"/>
<path d="M26.182 32.243C24.634 32.243 23.428 31.919 22.564 31.271C21.718 30.623 21.124 29.75 20.782 28.652C20.458 27.554 20.296 26.33 20.296 24.98V17.258C20.296 15.782 20.458 14.495 20.782 13.397C21.124 12.299 21.718 11.453 22.564 10.859C23.428 10.247 24.634 9.941 26.182 9.941C27.55 9.941 28.63 10.193 29.422 10.697C30.232 11.201 30.808 11.921 31.15 12.857C31.51 13.793 31.69 14.918 31.69 16.232V17.96H28.801V16.421C28.801 15.611 28.756 14.9 28.666 14.288C28.594 13.658 28.378 13.172 28.018 12.83C27.658 12.488 27.055 12.317 26.209 12.317C25.345 12.317 24.715 12.506 24.319 12.884C23.923 13.244 23.662 13.766 23.536 14.45C23.428 15.116 23.374 15.899 23.374 16.799V25.466C23.374 26.564 23.464 27.437 23.644 28.085C23.824 28.715 24.121 29.165 24.535 29.435C24.949 29.705 25.507 29.84 26.209 29.84C27.037 29.84 27.631 29.66 27.991 29.3C28.351 28.922 28.576 28.409 28.666 27.761C28.756 27.113 28.801 26.357 28.801 25.493V23.873H31.69V25.493C31.69 26.825 31.528 28.004 31.204 29.03C30.88 30.038 30.322 30.83 29.53 31.406C28.738 31.964 27.622 32.243 26.182 32.243ZM36.7295 32.216C36.1175 32.216 35.5775 32.045 35.1095 31.703C34.6415 31.343 34.2725 30.893 34.0025 30.353C33.7325 29.795 33.5975 29.21 33.5975 28.598C33.5975 27.626 33.7595 26.807 34.0835 26.141C34.4075 25.475 34.8485 24.917 35.4065 24.467C35.9825 23.999 36.6395 23.594 37.3775 23.252C38.1335 22.91 38.9255 22.577 39.7535 22.253V21.146C39.7535 20.516 39.7175 19.994 39.6455 19.58C39.5735 19.166 39.4205 18.86 39.1865 18.662C38.9705 18.446 38.6375 18.338 38.1875 18.338C37.7915 18.338 37.4675 18.428 37.2155 18.608C36.9815 18.788 36.8105 19.049 36.7025 19.391C36.5945 19.715 36.5405 20.102 36.5405 20.552V21.335L33.6785 21.227C33.7145 19.499 34.1105 18.23 34.8665 17.42C35.6225 16.592 36.7925 16.178 38.3765 16.178C39.9245 16.178 41.0225 16.601 41.6705 17.447C42.3185 18.293 42.6425 19.517 42.6425 21.119V28.247C42.6425 28.733 42.6515 29.201 42.6695 29.651C42.7055 30.101 42.7415 30.524 42.7775 30.92C42.8315 31.298 42.8765 31.658 42.9125 32H40.2665C40.2125 31.712 40.1405 31.352 40.0505 30.92C39.9785 30.47 39.9245 30.065 39.8885 29.705C39.7085 30.317 39.3575 30.893 38.8355 31.433C38.3315 31.955 37.6295 32.216 36.7295 32.216ZM37.8635 29.732C38.1515 29.732 38.4215 29.651 38.6735 29.489C38.9255 29.327 39.1505 29.147 39.3485 28.949C39.5465 28.733 39.6815 28.562 39.7535 28.436V24.008C39.3035 24.26 38.8805 24.512 38.4845 24.764C38.0885 25.016 37.7375 25.286 37.4315 25.574C37.1435 25.844 36.9095 26.159 36.7295 26.519C36.5675 26.861 36.4865 27.257 36.4865 27.707C36.4865 28.337 36.6035 28.832 36.8375 29.192C37.0715 29.552 37.4135 29.732 37.8635 29.732ZM51.0444 32.216C50.4864 32.216 49.9824 32.081 49.5324 31.811C49.1004 31.523 48.7224 31.208 48.3984 30.866V32H45.5094V10.13H48.3984V17.636C48.7404 17.24 49.1454 16.898 49.6134 16.61C50.0994 16.322 50.6754 16.178 51.3414 16.178C52.1514 16.178 52.7904 16.394 53.2584 16.826C53.7444 17.24 54.1044 17.771 54.3384 18.419C54.5724 19.049 54.7254 19.697 54.7974 20.363C54.8694 21.011 54.9054 21.569 54.9054 22.037V25.817C54.9054 26.915 54.7974 27.959 54.5814 28.949C54.3654 29.921 53.9784 30.713 53.4204 31.325C52.8624 31.919 52.0704 32.216 51.0444 32.216ZM50.4504 29.948C50.9544 29.948 51.3144 29.768 51.5304 29.408C51.7464 29.03 51.8814 28.526 51.9354 27.896C51.9894 27.266 52.0164 26.573 52.0164 25.817V22.037C52.0164 21.389 51.9804 20.795 51.9084 20.255C51.8364 19.697 51.6834 19.256 51.4494 18.932C51.2154 18.608 50.8464 18.446 50.3424 18.446C49.9644 18.446 49.6044 18.527 49.2624 18.689C48.9384 18.851 48.6504 19.031 48.3984 19.229V29.246C48.6504 29.444 48.9474 29.615 49.2894 29.759C49.6494 29.885 50.0364 29.948 50.4504 29.948Z" fill="black"/>
<path d="M70.1954 32V10.13H73.2464V20.444L78.2684 10.13H81.1034L76.7834 19.769L81.8054 32H78.8354L74.6504 21.74L73.2464 24.278V32H70.1954ZM85.5647 32.216C84.9527 32.216 84.4127 32.045 83.9447 31.703C83.4767 31.343 83.1077 30.893 82.8377 30.353C82.5677 29.795 82.4327 29.21 82.4327 28.598C82.4327 27.626 82.5947 26.807 82.9187 26.141C83.2427 25.475 83.6837 24.917 84.2417 24.467C84.8177 23.999 85.4747 23.594 86.2127 23.252C86.9687 22.91 87.7607 22.577 88.5887 22.253V21.146C88.5887 20.516 88.5527 19.994 88.4807 19.58C88.4087 19.166 88.2557 18.86 88.0217 18.662C87.8057 18.446 87.4727 18.338 87.0227 18.338C86.6267 18.338 86.3027 18.428 86.0507 18.608C85.8167 18.788 85.6457 19.049 85.5377 19.391C85.4297 19.715 85.3757 20.102 85.3757 20.552V21.335L82.5137 21.227C82.5497 19.499 82.9457 18.23 83.7017 17.42C84.4577 16.592 85.6277 16.178 87.2117 16.178C88.7597 16.178 89.8577 16.601 90.5057 17.447C91.1537 18.293 91.4777 19.517 91.4777 21.119V28.247C91.4777 28.733 91.4867 29.201 91.5047 29.651C91.5407 30.101 91.5767 30.524 91.6127 30.92C91.6667 31.298 91.7117 31.658 91.7477 32H89.1017C89.0477 31.712 88.9757 31.352 88.8857 30.92C88.8137 30.47 88.7597 30.065 88.7237 29.705C88.5437 30.317 88.1927 30.893 87.6707 31.433C87.1667 31.955 86.4647 32.216 85.5647 32.216ZM86.6987 29.732C86.9867 29.732 87.2567 29.651 87.5087 29.489C87.7607 29.327 87.9857 29.147 88.1837 28.949C88.3817 28.733 88.5167 28.562 88.5887 28.436V24.008C88.1387 24.26 87.7157 24.512 87.3197 24.764C86.9237 25.016 86.5727 25.286 86.2667 25.574C85.9787 25.844 85.7447 26.159 85.5647 26.519C85.4027 26.861 85.3217 27.257 85.3217 27.707C85.3217 28.337 85.4387 28.832 85.6727 29.192C85.9067 29.552 86.2487 29.732 86.6987 29.732ZM94.3716 32V16.394H97.2606V18.608C97.8366 17.654 98.4126 17.015 98.9886 16.691C99.5646 16.367 100.141 16.205 100.717 16.205C100.789 16.205 100.852 16.205 100.906 16.205C100.978 16.205 101.068 16.214 101.176 16.232V19.418C100.96 19.328 100.708 19.256 100.42 19.202C100.15 19.13 99.8706 19.094 99.5826 19.094C99.1326 19.094 98.7186 19.202 98.3406 19.418C97.9806 19.616 97.6206 20.012 97.2606 20.606V32H94.3716ZM107.206 32.216C106.054 32.216 105.145 31.982 104.479 31.514C103.813 31.046 103.336 30.38 103.048 29.516C102.778 28.652 102.643 27.635 102.643 26.465V21.929C102.643 20.759 102.778 19.742 103.048 18.878C103.336 18.014 103.813 17.348 104.479 16.88C105.145 16.412 106.054 16.178 107.206 16.178C108.358 16.178 109.258 16.412 109.906 16.88C110.572 17.348 111.04 18.014 111.31 18.878C111.598 19.742 111.742 20.759 111.742 21.929V26.465C111.742 27.635 111.598 28.652 111.31 29.516C111.04 30.38 110.572 31.046 109.906 31.514C109.258 31.982 108.358 32.216 107.206 32.216ZM107.206 30.083C107.764 30.083 108.151 29.921 108.367 29.597C108.601 29.273 108.736 28.85 108.772 28.328C108.826 27.788 108.853 27.23 108.853 26.654V21.767C108.853 21.173 108.826 20.615 108.772 20.093C108.736 19.571 108.601 19.148 108.367 18.824C108.151 18.482 107.764 18.311 107.206 18.311C106.648 18.311 106.252 18.482 106.018 18.824C105.784 19.148 105.64 19.571 105.586 20.093C105.55 20.615 105.532 21.173 105.532 21.767V26.654C105.532 27.23 105.55 27.788 105.586 28.328C105.64 28.85 105.784 29.273 106.018 29.597C106.252 29.921 106.648 30.083 107.206 30.083Z" fill="white"/>
<defs>
<linearGradient id="paint0_linear_41_1319" x1="63.0064" y1="12.4876" x2="63.9861" y2="12.4739" gradientUnits="userSpaceOnUse">
<stop stop-color="#F8B700"/>
<stop offset="1" stop-color="#333333"/>
</linearGradient>
</defs>
</svg>
