<svg width="268" height="108" viewBox="0 0 268 108" fill="none" xmlns="http://www.w3.org/2000/svg">
<g filter="url(#filter0_d_63_181)">
<rect width="260" height="105" rx="52.5" fill="url(#paint0_linear_63_181)"/>
<path d="M63.97 73.405C61.39 73.405 59.38 72.865 57.94 71.785C56.53 70.705 55.54 69.25 54.97 67.42C54.43 65.59 54.16 63.55 54.16 61.3V48.43C54.16 45.97 54.43 43.825 54.97 41.995C55.54 40.165 56.53 38.755 57.94 37.765C59.38 36.745 61.39 36.235 63.97 36.235C66.25 36.235 68.05 36.655 69.37 37.495C70.72 38.335 71.68 39.535 72.25 41.095C72.85 42.655 73.15 44.53 73.15 46.72V49.6H68.335V47.035C68.335 45.685 68.26 44.5 68.11 43.48C67.99 42.43 67.63 41.62 67.03 41.05C66.43 40.48 65.425 40.195 64.015 40.195C62.575 40.195 61.525 40.51 60.865 41.14C60.205 41.74 59.77 42.61 59.56 43.75C59.38 44.86 59.29 46.165 59.29 47.665V62.11C59.29 63.94 59.44 65.395 59.74 66.475C60.04 67.525 60.535 68.275 61.225 68.725C61.915 69.175 62.845 69.4 64.015 69.4C65.395 69.4 66.385 69.1 66.985 68.5C67.585 67.87 67.96 67.015 68.11 65.935C68.26 64.855 68.335 63.595 68.335 62.155V59.455H73.15V62.155C73.15 64.375 72.88 66.34 72.34 68.05C71.8 69.73 70.87 71.05 69.55 72.01C68.23 72.94 66.37 73.405 63.97 73.405ZM81.5492 73.36C80.5292 73.36 79.6292 73.075 78.8492 72.505C78.0692 71.905 77.4542 71.155 77.0042 70.255C76.5542 69.325 76.3292 68.35 76.3292 67.33C76.3292 65.71 76.5992 64.345 77.1392 63.235C77.6792 62.125 78.4142 61.195 79.3442 60.445C80.3042 59.665 81.3992 58.99 82.6292 58.42C83.8892 57.85 85.2092 57.295 86.5892 56.755V54.91C86.5892 53.86 86.5292 52.99 86.4092 52.3C86.2892 51.61 86.0342 51.1 85.6442 50.77C85.2842 50.41 84.7292 50.23 83.9792 50.23C83.3192 50.23 82.7792 50.38 82.3592 50.68C81.9692 50.98 81.6842 51.415 81.5042 51.985C81.3242 52.525 81.2342 53.17 81.2342 53.92V55.225L76.4642 55.045C76.5242 52.165 77.1842 50.05 78.4442 48.7C79.7042 47.32 81.6542 46.63 84.2942 46.63C86.8742 46.63 88.7042 47.335 89.7842 48.745C90.8642 50.155 91.4042 52.195 91.4042 54.865V66.745C91.4042 67.555 91.4192 68.335 91.4492 69.085C91.5092 69.835 91.5692 70.54 91.6292 71.2C91.7192 71.83 91.7942 72.43 91.8542 73H87.4442C87.3542 72.52 87.2342 71.92 87.0842 71.2C86.9642 70.45 86.8742 69.775 86.8142 69.175C86.5142 70.195 85.9292 71.155 85.0592 72.055C84.2192 72.925 83.0492 73.36 81.5492 73.36ZM83.4392 69.22C83.9192 69.22 84.3692 69.085 84.7892 68.815C85.2092 68.545 85.5842 68.245 85.9142 67.915C86.2442 67.555 86.4692 67.27 86.5892 67.06V59.68C85.8392 60.1 85.1342 60.52 84.4742 60.94C83.8142 61.36 83.2292 61.81 82.7192 62.29C82.2392 62.74 81.8492 63.265 81.5492 63.865C81.2792 64.435 81.1442 65.095 81.1442 65.845C81.1442 66.895 81.3392 67.72 81.7292 68.32C82.1192 68.92 82.6892 69.22 83.4392 69.22ZM105.407 73.36C104.477 73.36 103.637 73.135 102.887 72.685C102.167 72.205 101.537 71.68 100.997 71.11V73H96.1823V36.55H100.997V49.06C101.567 48.4 102.242 47.83 103.022 47.35C103.832 46.87 104.792 46.63 105.902 46.63C107.252 46.63 108.317 46.99 109.097 47.71C109.907 48.4 110.507 49.285 110.897 50.365C111.287 51.415 111.542 52.495 111.662 53.605C111.782 54.685 111.842 55.615 111.842 56.395V62.695C111.842 64.525 111.662 66.265 111.302 67.915C110.942 69.535 110.297 70.855 109.367 71.875C108.437 72.865 107.117 73.36 105.407 73.36ZM104.417 69.58C105.257 69.58 105.857 69.28 106.217 68.68C106.577 68.05 106.802 67.21 106.892 66.16C106.982 65.11 107.027 63.955 107.027 62.695V56.395C107.027 55.315 106.967 54.325 106.847 53.425C106.727 52.495 106.472 51.76 106.082 51.22C105.692 50.68 105.077 50.41 104.237 50.41C103.607 50.41 103.007 50.545 102.437 50.815C101.897 51.085 101.417 51.385 100.997 51.715V68.41C101.417 68.74 101.912 69.025 102.482 69.265C103.082 69.475 103.727 69.58 104.417 69.58Z" fill="black"/>
<path d="M137.326 73V36.55H142.411V53.74L150.781 36.55H155.506L148.306 52.615L156.676 73H151.726L144.751 55.9L142.411 60.13V73H137.326ZM162.941 73.36C161.921 73.36 161.021 73.075 160.241 72.505C159.461 71.905 158.846 71.155 158.396 70.255C157.946 69.325 157.721 68.35 157.721 67.33C157.721 65.71 157.991 64.345 158.531 63.235C159.071 62.125 159.806 61.195 160.736 60.445C161.696 59.665 162.791 58.99 164.021 58.42C165.281 57.85 166.601 57.295 167.981 56.755V54.91C167.981 53.86 167.921 52.99 167.801 52.3C167.681 51.61 167.426 51.1 167.036 50.77C166.676 50.41 166.121 50.23 165.371 50.23C164.711 50.23 164.171 50.38 163.751 50.68C163.361 50.98 163.076 51.415 162.896 51.985C162.716 52.525 162.626 53.17 162.626 53.92V55.225L157.856 55.045C157.916 52.165 158.576 50.05 159.836 48.7C161.096 47.32 163.046 46.63 165.686 46.63C168.266 46.63 170.096 47.335 171.176 48.745C172.256 50.155 172.796 52.195 172.796 54.865V66.745C172.796 67.555 172.811 68.335 172.841 69.085C172.901 69.835 172.961 70.54 173.021 71.2C173.111 71.83 173.186 72.43 173.246 73H168.836C168.746 72.52 168.626 71.92 168.476 71.2C168.356 70.45 168.266 69.775 168.206 69.175C167.906 70.195 167.321 71.155 166.451 72.055C165.611 72.925 164.441 73.36 162.941 73.36ZM164.831 69.22C165.311 69.22 165.761 69.085 166.181 68.815C166.601 68.545 166.976 68.245 167.306 67.915C167.636 67.555 167.861 67.27 167.981 67.06V59.68C167.231 60.1 166.526 60.52 165.866 60.94C165.206 61.36 164.621 61.81 164.111 62.29C163.631 62.74 163.241 63.265 162.941 63.865C162.671 64.435 162.536 65.095 162.536 65.845C162.536 66.895 162.731 67.72 163.121 68.32C163.511 68.92 164.081 69.22 164.831 69.22ZM177.619 73V46.99H182.434V50.68C183.394 49.09 184.354 48.025 185.314 47.485C186.274 46.945 187.234 46.675 188.194 46.675C188.314 46.675 188.419 46.675 188.509 46.675C188.629 46.675 188.779 46.69 188.959 46.72V52.03C188.599 51.88 188.179 51.76 187.699 51.67C187.249 51.55 186.784 51.49 186.304 51.49C185.554 51.49 184.864 51.67 184.234 52.03C183.634 52.36 183.034 53.02 182.434 54.01V73H177.619ZM199.01 73.36C197.09 73.36 195.575 72.97 194.465 72.19C193.355 71.41 192.56 70.3 192.08 68.86C191.63 67.42 191.405 65.725 191.405 63.775V56.215C191.405 54.265 191.63 52.57 192.08 51.13C192.56 49.69 193.355 48.58 194.465 47.8C195.575 47.02 197.09 46.63 199.01 46.63C200.93 46.63 202.43 47.02 203.51 47.8C204.62 48.58 205.4 49.69 205.85 51.13C206.33 52.57 206.57 54.265 206.57 56.215V63.775C206.57 65.725 206.33 67.42 205.85 68.86C205.4 70.3 204.62 71.41 203.51 72.19C202.43 72.97 200.93 73.36 199.01 73.36ZM199.01 69.805C199.94 69.805 200.585 69.535 200.945 68.995C201.335 68.455 201.56 67.75 201.62 66.88C201.71 65.98 201.755 65.05 201.755 64.09V55.945C201.755 54.955 201.71 54.025 201.62 53.155C201.56 52.285 201.335 51.58 200.945 51.04C200.585 50.47 199.94 50.185 199.01 50.185C198.08 50.185 197.42 50.47 197.03 51.04C196.64 51.58 196.4 52.285 196.31 53.155C196.25 54.025 196.22 54.955 196.22 55.945V64.09C196.22 65.05 196.25 65.98 196.31 66.88C196.4 67.75 196.64 68.455 197.03 68.995C197.42 69.535 198.08 69.805 199.01 69.805Z" fill="white"/>
</g>
<defs>
<filter id="filter0_d_63_181" x="0" y="0" width="271" height="108" filterUnits="userSpaceOnUse" color-interpolation-filters="sRGB">
<feFlood flood-opacity="0" result="BackgroundImageFix"/>
<feColorMatrix in="SourceAlpha" type="matrix" values="0 0 0 0 0 0 0 0 0 0 0 0 0 0 0 0 0 0 127 0" result="hardAlpha"/>
<feOffset dx="3" dy="3"/>
<feComposite in2="hardAlpha" operator="out"/>
<feColorMatrix type="matrix" values="0 0 0 0 0.2 0 0 0 0 0.2 0 0 0 0 0.2 0 0 0 1 0"/>
<feBlend mode="normal" in2="BackgroundImageFix" result="effect1_dropShadow_63_181"/>
<feBlend mode="normal" in="SourceGraphic" in2="effect1_dropShadow_63_181" result="shape"/>
</filter>
<linearGradient id="paint0_linear_63_181" x1="123.17" y1="32.7801" x2="125.086" y2="32.7601" gradientUnits="userSpaceOnUse">
<stop stop-color="#F8B700"/>
<stop offset="1" stop-color="#333333"/>
</linearGradient>
</defs>
</svg>
